Coordinates
version=1
nRows=13
nColumns=36
inDegrees=yes

Units are S.I. units (second, meters, Newtons, ...)
If the header above contains a line with 'inDegrees', this indicates whether rotational values are in degrees (yes) or radians (no).

endheader
time	pelvis_tilt	pelvis_list	pelvis_rotation	pelvis_tx	pelvis_ty	pelvis_tz	hip_flexion_r	hip_adduction_r	hip_rotation_r	knee_angle_r	knee_angle_r_beta	ankle_angle_r	subtalar_angle_r	mtp_angle_r	hip_flexion_l	hip_adduction_l	hip_rotation_l	knee_angle_l	knee_angle_l_beta	ankle_angle_l	subtalar_angle_l	mtp_angle_l	lumbar_extension	lumbar_bending	lumbar_rotation	arm_flex_r	arm_add_r	arm_rot_r	elbow_flex_r	pro_sup_r	arm_flex_l	arm_add_l	arm_rot_l	elbow_flex_l	pro_sup_l
      2.34166670	    -12.81163062	      1.49437698	     -4.73906205	     -0.04654367	      0.93162515	     -0.08311580	     40.22271913	     -3.51011823	     10.26649432	     29.81098757	      0.52029989	      7.22716912	    -12.45036670	     -7.49999987	     42.47330409	     -5.25845484	      5.72473002	     28.26470765	      0.49331221	     -0.73370378	     -8.83543558	     -7.49999987	     -7.71504237	      4.46200165	     -0.94982950	      1.76840380	    -58.67181249	     28.79633984	     78.01152469	     76.84947319	    -49.13183009	    -54.72708726	    -51.66810431	    130.04068325	     82.13154244
      2.34583330	    -12.86765238	      1.47932863	     -4.70668415	     -0.04294041	      0.92059714	     -0.08196739	     42.03130304	     -2.95806359	     11.30870099	     33.95340824	      0.59259877	      9.72596606	    -13.92053115	     -7.49999987	     44.00597694	     -5.17835246	      6.71642323	     31.96263898	      0.55785329	      2.69746551	     -9.50100854	     -7.49999987	     -7.61688639	      4.31243628	     -0.60410324	      1.36032717	    -58.37124098	     27.77741591	     76.85406542	     75.99437264	    -49.63064109	    -54.61070572	    -53.65455794	    130.73509556	     81.26136782
      2.35000000	    -12.80180981	      1.53137935	     -4.83629872	     -0.04159509	      0.91514719	     -0.08134671	     43.84125558	     -2.39995287	     12.06765093	     37.75647096	      0.65897473	     11.43541293	    -14.99961352	     -7.49999987	     45.49847057	     -4.99193852	      7.35557877	     35.55470735	      0.62054671	      4.84403319	    -10.67533294	     -7.49999987	     -7.95179690	      4.06632524	     -0.32124738	      1.18652159	    -57.88358371	     26.54927808	     75.49876477	     74.88479668	    -49.84516493	    -54.03160882	    -55.44542485	    131.52015679	     80.02081609
      2.35416670	    -12.10152638	      1.46701767	     -4.92677104	     -0.03654436	      0.90815507	     -0.08324296	     44.78481490	     -2.01724032	     12.44952928	     41.26508589	      0.72021161	     12.58125661	    -15.90366115	     -7.49999987	     46.35933051	     -4.67886074	      8.09268082	     38.98518259	      0.68041980	      6.42468713	    -12.10389038	     -7.49999987	     -8.96296563	      4.17209770	      0.04550439	      1.69843351	    -57.95528819	     26.13976331	     74.53651926	     74.86810735	    -49.14207462	    -53.84167588	    -55.96583694	    131.51769682	     80.02209080
      2.35833330	    -12.34703400	      1.39480357	     -5.16613863	     -0.03421780	      0.89997696	     -0.08333296	     46.75937175	     -1.59714648	     12.49680561	     44.50206766	      0.77670760	     13.91355152	    -15.94066091	     -7.49999987	     48.40544036	     -4.49456644	      8.62491621	     42.61563681	      0.74378318	      8.12424889	    -12.11129463	     -7.49999987	     -8.88450061	      4.11315169	      0.37690393	      2.00971358	    -57.39067304	     25.28710575	     72.87481393	     74.88399682	    -49.49197531	    -52.90345256	    -58.13851823	    132.49986166	     79.92535543
      2.36250000	    -11.83781220	      1.35718264	     -5.27312003	     -0.03107739	      0.89922879	     -0.08601019	     47.26608961	     -1.53446671	     12.70903347	     46.57901915	      0.81295725	     14.33810952	    -16.14890305	     -7.49999987	     49.04498927	     -4.02622052	      9.22740488	     45.07538976	      0.78671396	      8.86662471	    -12.92201381	     -7.49999987	     -9.92398503	      4.24892628	      0.66905327	      2.66648253	    -57.28614415	     24.94662873	     71.98544570	     74.87050852	    -48.44304524	    -52.48951947	    -58.64131061	    132.70220334	     79.88426633
      2.36666670	    -11.23699290	      1.30253348	     -5.26353856	     -0.03077541	      0.89273621	     -0.08426396	     47.67799982	     -1.52368727	     12.59520617	     48.67027079	      0.84945647	     15.70877916	    -15.52283241	     -7.49999987	     49.84372002	     -3.84145139	      9.40371107	     47.70458904	      0.83260215	      9.24198881	    -13.43322657	     -7.49999987	    -11.23739223	      4.22333342	      0.75665774	      3.79154699	    -56.64348877	     24.36043755	     70.45949897	     74.89316355	    -47.53025895	    -51.66527770	    -59.95017110	    133.54822236	     79.61675521
      2.37083330	    -10.75441804	      1.31705520	     -5.27039470	     -0.02669354	      0.88886410	     -0.08531749	     48.13030048	     -1.63340282	     12.64841980	     50.58874886	      0.88294023	     16.04914195	    -15.53071783	     -7.49999987	     50.49903770	     -3.59803787	      9.55122180	     49.92084024	      0.87128303	      9.54654887	    -14.05387559	     -7.49999987	    -12.34994027	      4.31014793	      1.03858028	      4.49444297	    -56.56254627	     24.04199287	     69.60062967	     74.88380198	    -46.50976114	    -51.10020422	    -60.31419496	    133.67743208	     79.55151485
      2.37500000	    -10.14176955	      1.32400268	     -5.40145032	     -0.02266196	      0.88549535	     -0.08609945	     48.31398748	     -1.80701090	     12.32026322	     52.34723087	      0.91363153	     16.78770616	    -14.90324170	     -7.49999987	     50.68768590	     -3.42983550	      9.58267505	     51.57938694	      0.90023013	      9.74282991	    -14.54738797	     -7.49999987	    -13.60702478	      4.44597990	      1.26447781	      5.52479627	    -56.24015692	     23.70035150	     68.21435460	     74.88287004	    -44.65700851	    -49.57870734	    -60.42943150	    134.31288280	     79.44177513
      2.37916670	     -9.54493350	      1.27331734	     -5.31512680	     -0.02042177	      0.88229062	     -0.08587918	     48.26565451	     -2.09431155	     11.81790476	     53.67621005	      0.93682660	     17.87147583	    -13.95858696	     -7.49999987	     50.79758901	     -3.31153109	      9.72125240	     53.11703661	      0.92706718	     10.16938896	    -14.56126205	     -7.49999987	    -14.87816029	      4.58767406	      1.49462686	      6.23885388	    -55.91729333	     23.40511606	     66.80484451	     74.17556772	    -42.89608446	    -48.40495393	    -60.21438849	    134.50542277	     78.43303796
      2.38333330	     -8.98097988	      1.17674422	     -5.16749244	     -0.01716156	      0.87843681	     -0.08474277	     48.13597194	     -2.27925165	     11.30601231	     54.93134350	      0.95873281	     19.02366131	    -13.07426098	     -7.49999987	     50.79839874	     -3.25942448	      9.81325932	     54.43476866	      0.95006594	     10.78415007	    -14.42676329	     -7.49999987	    -16.09292343	      4.57375740	      1.62440123	      7.09647408	    -55.21787956	     23.14022123	     65.32171936	     74.26601378	    -41.29587514	    -47.18222716	    -60.23728111	    134.62406442	     78.27324835
      2.38750000	     -8.45440353	      1.03755548	     -5.17493850	     -0.01423800	      0.87201418	     -0.08655523	     48.14424474	     -2.53283912	     10.65215019	     56.35841777	      0.98363995	     20.11818744	    -12.55146648	     -7.49999987	     51.00999264	     -3.27320340	      9.86691134	     55.96376145	      0.97675190	     12.10088697	    -13.69280188	     -7.49999987	    -17.08024588	      4.70777639	      2.09121878	      7.76170631	    -55.13242766	     23.16012390	     64.32042640	     73.44549923	    -39.43186508	    -46.57586369	    -60.00605773	    134.84665284	     76.93718287
      2.39166670	     -8.26297795	      0.97098638	     -5.21948815	     -0.01385170	      0.86627004	     -0.08867411	     48.62828331	     -2.81152846	     10.08463121	     57.68278069	      1.00675444	     21.14056168	    -12.13513747	     -7.49999987	     51.55374555	     -3.27628224	      9.81883568	     57.56445689	      1.00468930	     13.33415070	    -13.15542104	     -7.49999987	    -17.83857612	      4.78929704	      2.52668750	      8.36390652	    -55.12925188	     22.83095569	     63.82019390	     72.79487455	    -37.85315463	    -45.68874541	    -60.10016753	    134.90610184	     75.84250255
